<?xml version="1.0" encoding="utf-8"?>
<svg version="1.1" xmlns:xlink="http://www.w3.org/1999/xlink" width="90px" height="120px" xmlns="http://www.w3.org/2000/svg">
  <g>
    <path d="M 0 0  L 90 0  L 90 120  L 0 120  L 0 0  " fill-rule="nonzero" fill="#cccccc" stroke="none" />
    <path d="M 6 6  L 84 6  L 84 114  L 6 114  L 6 6  " fill-rule="nonzero" fill="#ffffff" stroke="none" />
    <path d="M 53.55 31.5  C 49.77 31.5  46.8 28.53  46.8 24.75  C 46.8 20.97  49.77 18  53.55 18  C 57.33 18  60.3 20.97  60.3 24.75  C 60.3 28.53  57.33 31.5  53.55 31.5  " fill-rule="nonzero" fill="#cccccc" stroke="none" />
    <path d="M 9 112  L 9 55.35  L 27.25 29.6  L 52.8 50.2  L 67.4 45.05  L 82 50.2  L 82 112  L 9 112  " fill-rule="nonzero" fill="#169bd5" stroke="none" />
  </g>
</svg>