<?xml version="1.0" encoding="utf-8"?>
<svg version="1.1" xmlns:xlink="http://www.w3.org/1999/xlink" width="50px" height="43px" xmlns="http://www.w3.org/2000/svg">
  <g transform="matrix(1 0 0 1 -210 -668 )">
    <path d="M 16.8108258928571 15.3831380208333  C 17.5083705357143 16.0830078125  17.8571428571429 16.9275173611111  17.8571428571429 17.9166666666667  C 17.8571428571429 18.9058159722222  17.5083705357143 19.7503255208333  16.8108258928571 20.4501953125  C 16.11328125 21.1500651041667  15.2715773809524 21.5  14.2857142857143 21.5  C 13.2998511904762 21.5  12.4581473214286 21.1500651041667  11.7606026785714 20.4501953125  C 11.0630580357143 19.7503255208333  10.7142857142857 18.9058159722222  10.7142857142857 17.9166666666667  C 10.7142857142857 16.9275173611111  11.0630580357143 16.0830078125  11.7606026785714 15.3831380208333  C 12.4581473214286 14.6832682291667  13.2998511904762 14.3333333333333  14.2857142857143 14.3333333333333  C 15.2715773809524 14.3333333333333  16.11328125 14.6832682291667  16.8108258928571 15.3831380208333  Z M 27.5251116071429 15.3831380208333  C 28.22265625 16.0830078125  28.5714285714286 16.9275173611111  28.5714285714286 17.9166666666667  C 28.5714285714286 18.9058159722222  28.22265625 19.7503255208333  27.5251116071429 20.4501953125  C 26.8275669642857 21.1500651041667  25.9858630952381 21.5  25 21.5  C 24.0141369047619 21.5  23.1724330357143 21.1500651041667  22.4748883928571 20.4501953125  C 21.77734375 19.7503255208333  21.4285714285714 18.9058159722222  21.4285714285714 17.9166666666667  C 21.4285714285714 16.9275173611111  21.77734375 16.0830078125  22.4748883928571 15.3831380208333  C 23.1724330357143 14.6832682291667  24.0141369047619 14.3333333333333  25 14.3333333333333  C 25.9858630952381 14.3333333333333  26.8275669642857 14.6832682291667  27.5251116071429 15.3831380208333  Z M 38.2393973214286 15.3831380208333  C 38.9369419642857 16.0830078125  39.2857142857143 16.9275173611111  39.2857142857143 17.9166666666667  C 39.2857142857143 18.9058159722222  38.9369419642857 19.7503255208333  38.2393973214286 20.4501953125  C 37.5418526785714 21.1500651041667  36.7001488095238 21.5  35.7142857142857 21.5  C 34.7284226190476 21.5  33.88671875 21.1500651041667  33.1891741071429 20.4501953125  C 32.4916294642857 19.7503255208333  32.1428571428571 18.9058159722222  32.1428571428571 17.9166666666667  C 32.1428571428571 16.9275173611111  32.4916294642857 16.0830078125  33.1891741071429 15.3831380208333  C 33.88671875 14.6832682291667  34.7284226190476 14.3333333333333  35.7142857142857 14.3333333333333  C 36.7001488095238 14.3333333333333  37.5418526785714 14.6832682291667  38.2393973214286 15.3831380208333  Z M 35.64453125 5.52897135416667  C 32.3428199404762 4.23187934027778  28.7946428571429 3.58333333333333  25 3.58333333333333  C 21.2053571428571 3.58333333333333  17.6571800595238 4.23187934027778  14.35546875 5.52897135416667  C 11.0537574404762 6.82606336805556  8.43098958333333 8.57573784722222  6.48716517857143 10.7779947916667  C 4.54334077380952 12.9802517361111  3.57142857142857 15.3598090277778  3.57142857142857 17.9166666666667  C 3.57142857142857 20.0069444444444  4.23642113095238 21.9992404513889  5.56640625 23.8935546875  C 6.89639136904762 25.7878689236111  8.77046130952381 27.4255642361111  11.1886160714286 28.806640625  L 13.6160714285714 30.2063802083333  L 12.8627232142857 32.8938802083333  C 12.4162946428571 34.5922309027778  11.7652529761905 36.197265625  10.9095982142857 37.708984375  C 13.7369791666667 36.533203125  16.2946428571429 34.9375  18.5825892857143 32.921875  L 19.7823660714286 31.8580729166667  L 21.3727678571429 32.0260416666667  C 22.65625 32.1753472222222  23.8653273809524 32.25  25 32.25  C 28.7946428571429 32.25  32.3428199404762 31.6014539930556  35.64453125 30.3043619791667  C 38.9462425595238 29.0072699652778  41.5690104166667 27.2575954861111  43.5128348214286 25.0553385416667  C 45.4566592261905 22.8530815972222  46.4285714285714 20.4735243055556  46.4285714285714 17.9166666666667  C 46.4285714285714 15.3598090277778  45.4566592261905 12.9802517361111  43.5128348214286 10.7779947916667  C 41.5690104166667 8.57573784722222  38.9462425595238 6.82606336805556  35.64453125 5.52897135416667  Z M 48.0189732142857 10.9599609375  C 49.3396577380952 13.1715494791667  50 15.4904513888889  50 17.9166666666667  C 50 21.1640625  48.8839285714286 24.1641710069444  46.6517857142857 26.9169921875  C 44.4196428571429 29.6698133680556  41.3876488095238 31.8440755208333  37.5558035714286 33.4397786458333  C 33.7239583333333 35.0354817708333  29.5386904761905 35.8333333333333  25 35.8333333333333  C 23.6979166666667 35.8333333333333  22.3493303571429 35.7586805555556  20.9542410714286 35.609375  C 17.2712053571429 38.8754340277778  12.992931547619 41.1336805555556  8.11941964285714 42.3841145833333  C 7.20796130952381 42.6453993055556  6.14769345238095 42.8506944444444  4.93861607142857 43  L 4.79910714285714 43  C 4.52008928571429 43  4.26897321428571 42.9020182291667  4.04575892857143 42.7060546875  C 3.82254464285714 42.5100911458333  3.67373511904762 42.2534722222222  3.59933035714286 41.9361979166667  L 3.59933035714286 41.908203125  C 3.54352678571429 41.8335503472222  3.53887648809524 41.7215711805556  3.58537946428571 41.572265625  C 3.63188244047619 41.4229600694444  3.65048363095238 41.3296440972222  3.64118303571429 41.2923177083333  C 3.63188244047619 41.2549913194444  3.67373511904762 41.1663411458333  3.76674107142857 41.0263671875  L 3.93415178571429 40.7744140625  C 3.93415178571429 40.7744140625  3.99925595238095 40.6950954861111  4.12946428571429 40.5364583333333  C 4.25967261904762 40.3778211805556  4.33407738095238 40.2938368055556  4.35267857142857 40.2845052083333  C 4.48288690476191 40.1351996527778  4.77120535714286 39.8132595486111  5.21763392857143 39.3186848958333  C 5.6640625 38.8241102430556  5.98493303571429 38.4695095486111  6.18024553571429 38.2548828125  C 6.37555803571429 38.0402560763889  6.66387648809524 37.6716579861111  7.04520089285714 37.1490885416667  C 7.42652529761905 36.6265190972222  7.72879464285714 36.1506076388889  7.95200892857143 35.7213541666667  C 8.17522321428571 35.2921006944444  8.42633928571429 34.7415364583333  8.70535714285714 34.0696614583333  C 8.984375 33.3977864583333  9.22619047619048 32.6885850694444  9.43080357142857 31.9420572916667  C 6.51041666666667 30.2810329861111  4.20851934523809 28.2280815972222  2.52511160714286 25.783203125  C 0.841703869047619 23.3383246527778  0 20.7161458333333  0 17.9166666666667  C 0 15.4904513888889  0.660342261904762 13.1715494791667  1.98102678571429 10.9599609375  C 3.30171130952381 8.74837239583334  5.078125 6.84006076388888  7.31026785714286 5.23502604166667  C 9.54241071428571 3.62999131944444  12.202380952381 2.35622829861111  15.2901785714286 1.41373697916667  C 18.3779761904762 0.47124565972222  21.6145833333333 0  25 0  C 28.3854166666667 0  31.6220238095238 0.47124565972222  34.7098214285714 1.41373697916667  C 37.7976190476191 2.35622829861111  40.4575892857143 3.62999131944444  42.6897321428571 5.23502604166667  C 44.921875 6.84006076388888  46.6982886904762 8.74837239583334  48.0189732142857 10.9599609375  Z " fill-rule="nonzero" fill="#000000" stroke="none" transform="matrix(1 0 0 1 210 668 )" />
  </g>
</svg>