<?xml version="1.0" encoding="utf-8"?>
<svg version="1.1" xmlns:xlink="http://www.w3.org/1999/xlink" width="36px" height="39px" xmlns="http://www.w3.org/2000/svg">
  <g transform="matrix(1 0 0 1 -126 -830 )">
    <path d="M 5.3325 32.0302734375  C 5.6175 31.7171223958333  5.76 31.33203125  5.76 30.875  C 5.76 30.4348958333333  5.6175 30.0540364583333  5.3325 29.732421875  C 5.0475 29.4108072916667  4.71 29.25  4.32 29.25  C 3.915 29.25  3.57375 29.4108072916667  3.29625 29.732421875  C 3.01875 30.0540364583333  2.88 30.4348958333333  2.88 30.875  C 2.88 31.33203125  3.01875 31.7171223958333  3.29625 32.0302734375  C 3.57375 32.3434244791667  3.915 32.5  4.32 32.5  C 4.71 32.5  5.0475 32.3434244791667  5.3325 32.0302734375  Z M 8.9325 16.732421875  C 9.2175 17.0540364583333  9.36 17.4348958333333  10 17.875  L 10 34.125  C 9.36 34.5651041666667  9.2175 34.9459635416667  8.9325 35.267578125  C 8.6475 35.5891927083333  8.31 35.75  7.92 35.75  L 1.44 35.75  C 1.05 35.75  0.7125 35.5891927083333  0.4275 35.267578125  C 0.1425 34.9459635416667  0 34.5651041666667  0 34.125  L 0 17.875  C 0 17.4348958333333  0.1425 17.0540364583333  0.4275 16.732421875  C 0.7125 16.4108072916667  1.05 16.25  1.44 16.25  L 7.92 16.25  C 8.31 16.25  8.6475 16.4108072916667  8.9325 16.732421875  Z M 34.7175 14.447265625  C 35.5725 15.412109375  36 16.5546875  36 17.875  C 36 19.3307291666667  35.5875 20.591796875  34.7625 21.658203125  C 34.9875 22.4029947916667  35.1 23.0462239583333  35.1 23.587890625  C 35.145 24.8743489583333  34.8225 26.0338541666667  34.1325 27.06640625  C 34.3875 28.0143229166667  34.3875 29.0045572916667  34.1325 30.037109375  C 33.9075 31.001953125  33.5025 31.7975260416667  32.9175 32.423828125  C 33.0525 34.3196614583333  32.685 35.8515625  31.815 37.01953125  C 30.855 38.3059895833333  29.3775 38.9661458333333  27.3825 39  L 26.5725 39  L 24.8625 39  L 24.48 39  C 23.49 39  22.41 38.8688151041667  21.24 38.6064453125  C 20.07 38.3440755208333  19.15875 38.0986328125  18.50625 37.8701171875  C 17.85375 37.6416015625  16.95 37.3072916666667  15.795 36.8671875  C 13.95 36.1393229166667  12.765 35.7669270833333  12.24 35.75  C 11.85 35.7330729166667  11.5125 35.5680338541667  11.2275 35.2548828125  C 10.9425 34.9417317708333  10.8 34.5651041666667  11 34.125  L 11 17.849609375  C 10.8 17.4264322916667  10.935 17.0582682291667  11.205 16.7451171875  C 11.475 16.4319661458333  11.7975 16.2584635416667  12.1725 16.224609375  C 12.5325 16.1907552083333  13.1025 15.69140625  13.8825 14.7265625  C 14.6625 13.76171875  15.42 12.7376302083333  16.155 11.654296875  C 17.175 10.181640625  17.9325 9.166015625  18.4275 8.607421875  C 18.6975 8.302734375  18.93 7.896484375  19.125 7.388671875  C 19.32 6.880859375  19.45125 6.47037760416666  19.51875 6.1572265625  C 19.58625 5.84407552083333  19.6875 5.33203125  19.8225 4.62109375  C 19.9275 3.9609375  20.02125 3.44466145833333  20.10375 3.072265625  C 20.18625 2.69986979166666  20.3325 2.259765625  20.5425 1.751953125  C 20.7525 1.244140625  21.0075 0.820963541666666  21.3075 0.482421874999999  C 21.5925 0.160807291666665  21.93 0  22.32 0  C 23.01 0  23.62875 0.0888671875000014  24.17625 0.2666015625  C 24.72375 0.444335937499999  25.17375 0.664388020833329  25.52625 0.926757812500001  C 25.87875 1.18912760416666  26.17875 1.53190104166666  26.42625 1.955078125  C 26.67375 2.37825520833333  26.85375 2.75911458333333  26.96625 3.09765625  C 27.07875 3.43619791666666  27.16875 3.859375  27.23625 4.3671875  C 27.30375 4.875  27.34125 5.255859375  27.34875 5.509765625  C 27.35625 5.763671875  27.36 6.09375  27.36 6.5  C 27.36 7.14322916666667  27.28875 7.78645833333333  27.14625 8.4296875  C 27.00375 9.07291666666666  26.86125 9.58072916666667  26.71875 9.953125  C 26.57625 10.3255208333333  26.37 10.7994791666667  26.1 11.375  C 26.055 11.4765625  25.98 11.62890625  25.875 11.83203125  C 25.77 12.03515625  25.6875 12.2213541666667  25.6275 12.390625  C 25.5675 12.5598958333333  25.5075 12.7630208333333  25.4475 13  L 31.68 13  C 32.85 13  33.8625 13.482421875  34.7175 14.447265625  Z " fill-rule="nonzero" fill="#000000" stroke="none" transform="matrix(1 0 0 1 126 830 )" />
  </g>
</svg>