<?xml version="1.0" encoding="utf-8"?>
<svg version="1.1" xmlns:xlink="http://www.w3.org/1999/xlink" width="36px" height="39px" xmlns="http://www.w3.org/2000/svg">
  <g transform="matrix(1 0 0 1 -217 -830 )">
    <path d="M 5.5546875 32.5546875  C 5.8515625 32.2578125  6 31.90625  6 31.5  C 6 31.09375  5.8515625 30.7421875  5.5546875 30.4453125  C 5.2578125 30.1484375  4.90625 30  4.5 30  C 4.09375 30  3.7421875 30.1484375  3.4453125 30.4453125  C 3.1484375 30.7421875  3 31.09375  3 31.5  C 3 31.90625  3.1484375 32.2578125  3.4453125 32.5546875  C 3.7421875 32.8515625  4.09375 33  4.5 33  C 4.90625 33  5.2578125 32.8515625  5.5546875 32.5546875  Z M 32.49609375 19.8984375  C 32.83203125 19.1796875  33 18.546875  33 18  C 33 17.203125  32.6953125 16.50390625  32.0859375 15.90234375  C 31.4765625 15.30078125  30.78125 15  30 15  L 21.75 15  C 21.75 14.09375  22.125 12.84765625  22.875 11.26171875  C 23.625 9.67578125  24 8.421875  24 7.5  C 24 5.96875  23.75 4.8359375  23.25 4.1015625  C 22.75 3.3671875  21.75 3  20.25 3  C 19.84375 3.40625  19.546875 4.0703125  19.359375 4.9921875  C 19.171875 5.9140625  18.93359375 6.89453124999999  18.64453125 7.93359375  C 18.35546875 8.97265625  17.890625 9.828125  17.25 10.5  C 16.90625 10.859375  16.3046875 11.5703125  15.4453125 12.6328125  C 15.3828125 12.7109375  15.203125 12.9453125  14.90625 13.3359375  C 14.609375 13.7265625  14.36328125 14.046875  14.16796875 14.296875  C 13.97265625 14.546875  13.703125 14.87890625  13.359375 15.29296875  C 13.015625 15.70703125  12.703125 16.05078125  12.421875 16.32421875  C 12.140625 16.59765625  11.83984375 16.875  11.51953125 17.15625  C 11.19921875 17.4375  10.88671875 17.6484375  10.58203125 17.7890625  C 10.27734375 17.9296875  10 18  9.75 18  L 9 18  L 9 33  L 9.75 33  C 9.953125 33  10.19921875 33.0234375  10.48828125 33.0703125  C 10.77734375 33.1171875  11.03515625 33.16796875  11.26171875 33.22265625  C 11.48828125 33.27734375  11.78515625 33.36328125  12.15234375 33.48046875  C 12.51953125 33.59765625  12.79296875 33.6875  12.97265625 33.75  C 13.15234375 33.8125  13.4296875 33.91015625  13.8046875 34.04296875  C 14.1796875 34.17578125  14.40625 34.2578125  14.484375 34.2890625  C 17.78125 35.4296875  20.453125 36  22.5 36  L 25.3359375 36  C 28.3359375 36  29.8359375 34.6953125  29.8359375 32.0859375  C 29.8359375 31.6796875  29.796875 31.2421875  29.71875 30.7734375  C 30.1875 30.5234375  30.55859375 30.11328125  30.83203125 29.54296875  C 31.10546875 28.97265625  31.2421875 28.3984375  31.2421875 27.8203125  C 31.2421875 27.2421875  31.1015625 26.703125  30.8203125 26.203125  C 31.6484375 25.421875  32.0625 24.4921875  32.0625 23.4140625  C 32.0625 23.0234375  31.984375 22.58984375  31.828125 22.11328125  C 31.671875 21.63671875  31.4765625 21.265625  31.2421875 21  C 31.7421875 20.984375  32.16015625 20.6171875  32.49609375 19.8984375  Z M 34.21875 13.78125  C 35.40625 14.96875  36 16.3671875  36 17.9765625  C 36 19.3671875  35.6171875 20.640625  34.8515625 21.796875  C 34.9921875 22.3125  35.0625 22.8515625  35.0625 23.4140625  C 35.0625 24.6171875  34.765625 25.7421875  34.171875 26.7890625  C 34.21875 27.1171875  34.2421875 27.453125  34.2421875 27.796875  C 34.2421875 29.375  33.7734375 30.765625  32.8359375 31.96875  C 32.8515625 34.140625  32.1875 35.85546875  30.84375 37.11328125  C 29.5 38.37109375  27.7265625 39  25.5234375 39  L 24.6796875 39  L 22.5 39  C 21 39  19.51953125 38.82421875  18.05859375 38.47265625  C 16.59765625 38.12109375  14.90625 37.609375  12.984375 36.9375  C 11.171875 36.3125  10.09375 36  9.75 36  L 3 36  C 2.171875 36  1.46484375 35.70703125  0.87890625 35.12109375  C 0.29296875 34.53515625  0 33.828125  0 33  L 0 18  C 0 17.171875  0.29296875 16.46484375  0.87890625 15.87890625  C 1.46484375 15.29296875  2.171875 15  3 15  L 9.421875 15  C 9.984375 14.625  11.0546875 13.4140625  12.6328125 11.3671875  C 13.5390625 10.1953125  14.375 9.1953125  15.140625 8.3671875  C 15.515625 7.9765625  15.79296875 7.30859375  15.97265625 6.36328125  C 16.15234375 5.41796875  16.390625 4.4296875  16.6875 3.3984375  C 16.984375 2.3671875  17.46875 1.5234375  18.140625 0.867187499999998  C 18.75 0.289062500000002  19.453125 0  20.25 0  C 21.5625 0  22.7421875 0.253906250000003  23.7890625 0.76171875  C 24.8359375 1.26953125  25.6328125 2.0625  26.1796875 3.140625  C 26.7265625 4.21875  27 5.671875  27 7.5  C 27 8.953125  26.625 10.453125  25.875 12  L 30 12  C 31.625 12  33.03125 12.59375  34.21875 13.78125  Z " fill-rule="nonzero" fill="#000000" stroke="none" transform="matrix(1 0 0 1 217 830 )" />
  </g>
</svg>